# xmcd
#
# Track frame offsets:
#	150
#	12294
#	22446
#	36969
#	51205
#	61699
#	76881
#	90905
#	106527
#	124741
#	141838
#	157362
#	172689
#	184398
#	196915
#	206366
#	217875
#	231317
#
# Disc length: 3282 seconds
#
# Revision: 0
# Processed by: cddbd v1.4b42PL1 Copyright (c) Steve Scherf et al.
# Submitted via: OrangeCD 4.1
#
DISCID=ed0cd012
DTITLE=Dead Ringer Band - Till Now - The Very Best of
DYEAR=1900
DGENRE=
TTITLE0=Am I The Only One (Who's Ever Felt This Way)
TTITLE1=Living In The Circle
TTITLE2=Home Fires
TTITLE3=Wish It Would Rain
TTITLE4=Australian Son
TTITLE5=Saddle Boy
TTITLE6=Halfway to Sydney
TTITLE7=That's More About Love
TTITLE8=Already Gone
TTITLE9=Speed Of The Sound Of Loneliness
TTITLE10=Power Of The Land
TTITLE11=Family Man
TTITLE12=Crazy Heart
TTITLE13=He Thinks I Still Care
TTITLE14=Road To Nowhere
TTITLE15=That's What Makes A Broken Heart
TTITLE16=Hello Hopeville
TTITLE17=If I Needed You
EXTD=
EXTT0=
EXTT1=
EXTT2=
EXTT3=
EXTT4=
EXTT5=
EXTT6=
EXTT7=
EXTT8=
EXTT9=
EXTT10=
EXTT11=
EXTT12=
EXTT13=
EXTT14=
EXTT15=
EXTT16=
EXTT17=
PLAYORDER=
